<svg version="1.1" id="Layer_1" xmlns="http://www.w3.org/2000/svg" xmlns:xlink="http://www.w3.org/1999/xlink" x="0px" y="0px"
	 width="100%" viewBox="0 0 1920 1080" enable-background="new 0 0 1920 1080" xml:space="preserve">
<path fill="#000000" opacity="1.000000" stroke="none" 
	d="
M1265.000000,1081.000000 
	C843.333435,1081.000000 422.166809,1081.000000 1.000170,1081.000000 
	C1.000113,721.000122 1.000113,361.000275 1.000057,1.000314 
	C640.999756,1.000210 1280.999512,1.000210 1920.999512,1.000105 
	C1920.999634,360.999664 1920.999634,720.999329 1920.999756,1080.999512 
	C1702.500000,1081.000000 1484.000000,1081.000000 1265.000000,1081.000000 
M1120.846313,634.622803 
	C1120.670288,634.341370 1120.420044,634.165955 1119.683350,633.993164 
	C1119.683350,633.993164 1119.259033,633.972595 1118.814941,633.433655 
	C1089.222412,613.609558 1059.680298,593.709351 1029.964233,574.072144 
	C1026.786377,571.972046 1022.594543,571.406006 1018.928040,570.083496 
	C1018.928040,570.083496 1018.921082,570.154053 1018.655701,569.600952 
	C1018.079773,569.456177 1017.503784,569.311462 1016.126160,568.989807 
	C1012.282837,568.324524 1008.453369,567.562439 1004.593567,567.012695 
	C994.236633,565.537659 983.866943,564.152466 973.502014,562.733582 
	C961.681641,561.115417 949.861023,559.499573 937.574890,557.246277 
	C932.168152,555.528015 926.628418,554.140991 921.377869,552.033630 
	C899.885620,543.407043 878.481628,534.560669 857.047424,524.885010 
	C857.381287,510.081421 857.759705,495.278564 858.012268,480.473572 
	C858.063904,477.442780 859.102112,475.526825 862.028625,474.355316 
	C866.351440,472.624847 870.522461,470.518402 874.779480,468.619995 
	C893.631042,460.213165 912.492432,451.828461 931.344666,443.423187 
	C934.776367,441.893158 938.032898,441.059387 941.826172,442.876129 
	C956.537903,449.922058 971.339966,456.781616 986.160095,463.598267 
	C996.134888,468.186249 1006.196472,472.585693 1016.221375,477.998230 
	C1016.210205,491.582733 1016.199036,505.167267 1016.118958,519.708923 
	C1016.091492,522.364624 1016.160950,525.025696 1016.013672,527.674744 
	C1015.800659,531.506897 1017.496826,533.105469 1021.322998,532.986328 
	C1026.132568,532.836426 1030.952393,532.881897 1035.764771,532.983459 
	C1048.690552,533.256165 1061.613403,533.704651 1074.540039,533.882690 
	C1081.997803,533.985413 1090.221558,535.658813 1096.742432,533.127075 
	C1106.429077,529.366333 1114.912354,522.506287 1123.958740,516.033447 
	C1124.311768,480.784698 1124.683960,445.536072 1124.976196,410.286835 
	C1124.996338,407.850311 1124.421997,405.408905 1123.503296,402.371307 
	C1110.379517,402.240021 1097.253784,401.925385 1084.133179,402.075989 
	C1079.478882,402.129364 1076.121094,400.888763 1072.784058,397.480774 
	C1059.062500,383.467712 1045.015259,369.773621 1030.472290,355.367584 
	C1028.322388,355.246185 1026.173218,355.038605 1024.022339,355.016296 
	C990.300171,354.666687 956.578369,354.221405 922.855225,354.048065 
	C896.578674,353.913055 870.300415,354.123230 843.389526,354.360870 
	C841.230286,356.411011 839.058167,358.447876 836.913818,360.513428 
	C823.604248,373.333984 810.300903,386.160919 796.059265,399.017303 
	C782.353271,399.016571 768.647034,398.982178 754.941406,399.053772 
	C753.032104,399.063782 751.125549,399.595154 749.123657,400.826111 
	C748.756409,412.619812 748.402710,424.413971 748.017456,436.207092 
	C747.724670,445.171631 747.240601,454.132599 747.105835,463.099091 
	C746.726074,488.379089 746.482483,513.661072 746.493774,539.523560 
	C752.361877,543.869690 758.207886,548.245911 764.101990,552.556580 
	C787.317139,569.535156 810.481934,586.584473 833.847900,603.353210 
	C837.079895,605.672668 841.222656,607.497070 845.134521,607.968811 
	C869.519470,610.909607 893.977295,613.243591 918.369202,616.131531 
	C926.053101,617.041321 933.969116,618.061768 941.154053,620.720154 
	C961.424683,628.220276 981.175842,637.145691 1001.532593,644.381897 
	C1010.847290,647.693115 1016.081970,651.983154 1014.218567,663.200134 
	C1014.193481,676.171143 1014.248657,689.143433 1014.041687,702.111511 
	C1014.015808,703.734436 1013.014038,706.257080 1011.773132,706.809387 
	C989.352051,716.788086 966.268494,725.456787 944.539917,736.741821 
	C932.525391,742.981689 923.736694,740.889160 912.970703,735.230347 
	C893.685242,725.093384 873.720642,716.248413 854.013550,705.944092 
	C854.331116,690.585083 854.710083,675.227051 854.936279,659.866699 
	C855.027832,653.647888 854.554932,653.318970 848.042786,652.059143 
	C848.042786,649.817322 848.042786,647.575500 848.042786,644.991638 
	C827.919495,644.991638 808.548462,645.043518 789.178162,644.948364 
	C785.255920,644.929077 781.334900,644.082947 777.416138,644.106079 
	C772.708740,644.133789 768.004395,644.683777 762.608398,645.253113 
	C757.371033,648.754822 752.212036,652.382446 746.864990,655.707825 
	C743.974304,657.505615 743.021973,659.784912 742.977112,663.104858 
	C742.824463,674.381042 742.279053,685.651489 742.085632,696.927551 
	C741.672852,720.997986 741.362732,745.070374 741.093872,769.142822 
	C741.072327,771.074097 741.692322,773.012573 742.734131,775.353516 
	C744.873047,775.569519 747.011047,775.960327 749.151123,775.972351 
	C760.478455,776.036255 771.817200,775.733154 783.127075,776.183289 
	C786.248840,776.307495 790.038086,777.815613 792.237183,779.988220 
	C805.379028,792.971985 818.363586,806.134033 830.903259,819.696350 
	C834.606934,823.702148 838.304749,825.047058 843.464172,825.076843 
	C868.429749,825.221436 893.393372,825.684509 918.358459,825.960205 
	C952.651001,826.338989 986.944092,826.740112 1021.237732,826.832275 
	C1024.182373,826.840149 1027.813965,825.328674 1029.969971,823.296143 
	C1043.655029,810.394653 1057.078247,797.211792 1070.430664,783.963440 
	C1073.250488,781.165527 1076.186035,779.921997 1080.146729,779.942505 
	C1093.801880,780.013367 1107.458496,779.813110 1121.775269,779.413574 
	C1122.180176,777.371765 1122.935181,775.330566 1122.938477,773.288147 
	C1123.009277,729.622986 1123.009399,685.957764 1122.956665,642.292603 
	C1122.954224,640.195068 1122.340088,638.098267 1121.775024,635.545410 
	C1121.502686,635.343933 1121.230225,635.142517 1120.961304,635.042297 
	C1120.961304,635.042297 1121.062500,635.039307 1120.846313,634.622803 
M1452.567627,724.248413 
	C1451.703491,724.494751 1450.839233,724.741089 1449.043457,725.062500 
	C1430.771118,724.707581 1412.499390,724.306824 1394.225952,724.019043 
	C1386.229614,723.893127 1378.227173,724.106262 1370.232544,723.932190 
	C1367.835327,723.880066 1365.369629,723.291199 1363.084961,722.510193 
	C1358.132324,720.817139 1353.308960,718.749756 1348.373779,717.001526 
	C1340.059082,714.056152 1332.709229,710.006714 1326.546387,703.277466 
	C1316.764282,692.596375 1306.086548,682.739929 1296.020630,672.309753 
	C1294.397827,670.628052 1293.201538,667.802063 1293.139038,665.469421 
	C1292.804565,652.982361 1292.891846,640.484009 1292.954712,627.060486 
	C1292.966309,621.579773 1292.980469,616.099060 1292.989380,610.618347 
	C1293.046265,575.743225 1293.102051,540.868164 1293.677246,505.603912 
	C1300.077393,499.282776 1306.797852,493.248352 1312.784912,486.557526 
	C1318.444336,480.232880 1325.427612,476.776031 1333.107666,473.634430 
	C1345.366333,468.619934 1357.743286,465.983154 1371.019165,466.961639 
	C1381.130859,467.706909 1391.320923,468.260559 1401.437378,467.877625 
	C1420.273193,467.164612 1438.689575,468.292816 1456.171265,476.165161 
	C1457.522217,476.773529 1459.033569,477.061401 1460.496094,477.380463 
	C1464.363037,478.224121 1466.863403,480.458954 1468.601440,484.072784 
	C1473.439331,494.131744 1478.712402,503.984253 1483.421997,514.100647 
	C1484.912476,517.302246 1485.751831,521.058228 1485.875854,524.596130 
	C1486.208496,534.081726 1485.859375,543.589722 1486.091309,553.081299 
	C1486.147583,555.381104 1487.402222,557.651489 1489.029785,559.933533 
	C1514.017944,559.939331 1539.006104,559.964844 1563.994263,559.920349 
	C1566.470825,559.915894 1569.058716,559.868103 1571.403320,559.183838 
	C1581.311890,556.291870 1591.120239,553.057678 1601.024536,550.150330 
	C1604.666504,549.081421 1606.053711,547.036743 1606.009766,543.276367 
	C1605.863647,530.783997 1606.020386,518.288269 1605.892456,505.795563 
	C1605.865601,503.167847 1605.379761,500.475342 1604.668945,497.934875 
	C1597.714722,473.082031 1590.240356,448.364532 1583.842163,423.370911 
	C1580.994629,412.247101 1576.469482,404.518799 1565.354248,399.135590 
	C1541.111206,387.394501 1517.780640,373.775543 1493.977783,361.110840 
	C1491.456665,359.769409 1488.280518,359.116638 1485.396729,359.080963 
	C1448.106079,358.619385 1410.813965,358.261841 1373.521118,358.018585 
	C1352.032227,357.878418 1330.538696,357.805542 1309.054565,358.150543 
	C1304.786743,358.219086 1300.175415,359.615112 1296.369263,361.624298 
	C1282.832031,368.770386 1269.537476,376.380646 1256.221802,383.940277 
	C1244.653076,390.508331 1233.180542,397.245789 1221.145386,404.268982 
	C1220.128906,405.770660 1218.937256,407.183319 1218.121826,408.787231 
	C1205.299316,434.010712 1192.835083,459.423218 1179.574829,484.413635 
	C1174.844238,493.328827 1173.102417,502.523773 1173.081177,512.170959 
	C1172.956421,568.773743 1173.040527,625.377075 1173.078491,682.758484 
	C1173.706421,684.808655 1174.067871,686.989868 1175.002075,688.889465 
	C1189.257202,717.876831 1203.505005,746.868835 1218.021240,775.725586 
	C1219.562012,778.788635 1222.345459,781.727539 1225.288696,783.505005 
	C1248.374512,797.446228 1271.605347,811.149414 1294.886108,824.763977 
	C1298.552124,826.907959 1302.567749,829.193542 1306.645142,829.736694 
	C1314.524536,830.786377 1322.560425,830.841125 1330.536377,830.954529 
	C1360.490967,831.380249 1390.447632,831.656189 1420.403320,832.002258 
	C1444.531494,832.281067 1468.659302,832.615601 1492.788086,832.802124 
	C1494.681274,832.816833 1496.759766,832.200256 1498.452271,831.308044 
	C1521.126587,819.354797 1543.771851,807.345459 1566.365601,795.240417 
	C1572.352539,792.032715 1578.140137,788.452820 1584.403809,784.420227 
	C1584.995972,782.697693 1585.718384,781.007935 1586.160645,779.247742 
	C1593.408691,750.405273 1600.624756,721.554749 1607.832520,692.702209 
	C1608.193970,691.255188 1608.680176,689.770020 1608.662354,688.308105 
	C1608.490234,674.198364 1608.329346,660.086243 1607.865845,645.984619 
	C1607.797485,643.901184 1606.684448,641.295898 1605.160767,639.927246 
	C1601.485596,636.625916 1597.281250,633.913940 1592.682251,630.314575 
	C1590.867432,630.207397 1589.052612,630.008911 1587.237671,630.006958 
	C1566.305786,629.984436 1545.374023,630.009949 1524.442261,629.961060 
	C1522.490723,629.956482 1520.503540,629.697205 1518.595703,629.273376 
	C1509.327393,627.214905 1507.310547,628.669128 1505.911133,637.942139 
	C1501.749023,637.944275 1497.580566,638.092529 1493.426636,637.910095 
	C1488.681763,637.701660 1486.878418,639.828857 1486.960449,644.481873 
	C1487.128052,653.968323 1487.394043,663.483032 1486.836914,672.939941 
	C1486.553955,677.740784 1485.081543,682.652710 1483.227783,687.134216 
	C1480.885132,692.797546 1477.728638,698.142883 1474.700073,703.499207 
	C1470.622559,710.710571 1468.126587,719.272827 1459.169800,722.377502 
	C1459.169800,722.377502 1459.298462,722.388184 1458.594849,722.336121 
	C1457.763184,722.700623 1456.931641,723.065125 1456.125854,723.285583 
	C1456.125854,723.285583 1456.269897,723.311707 1455.569336,723.290039 
	C1454.743286,723.663086 1453.917358,724.036133 1453.117065,724.271484 
	C1453.117065,724.271484 1453.254761,724.297363 1452.567627,724.248413 
M277.295166,358.550964 
	C277.628632,360.171173 277.814819,361.838562 278.316925,363.404694 
	C292.843109,408.713654 307.388306,454.016479 321.957397,499.311646 
	C334.590973,538.589233 347.252289,577.858032 359.910522,617.127686 
	C376.601288,668.907532 393.256073,720.699036 410.022552,772.454346 
	C415.505768,789.380127 421.289551,806.208435 427.160522,823.804565 
	C428.860657,824.528748 430.544006,825.837158 432.263519,825.886597 
	C449.212250,826.373657 466.165771,826.834717 483.120270,826.945801 
	C508.083984,827.109436 533.049622,826.981323 557.997559,826.995300 
	C557.997559,826.995300 558.015442,826.986633 558.248901,827.126282 
	C558.248901,827.126282 558.646729,827.165100 558.646729,827.165100 
	C558.646729,827.165100 559.022034,827.014648 559.495422,826.501648 
	C560.003357,825.457214 560.587402,824.442505 561.007996,823.364014 
	C568.203186,804.910828 575.357117,786.441650 582.561584,767.992126 
	C604.356689,712.178406 626.184814,656.377563 647.971924,600.560730 
	C676.172791,528.312256 704.376282,456.064789 732.489075,383.782043 
	C735.548218,375.916473 738.015808,367.820770 740.094055,359.394501 
	C721.543945,358.934784 702.995972,358.293457 684.443054,358.066101 
	C665.674988,357.836029 646.901978,358.009644 628.131104,358.027893 
	C626.643677,358.029327 624.873962,357.705261 623.714661,358.369202 
	C616.013184,362.779846 608.442383,367.418671 600.086853,372.070984 
	C599.727539,372.539764 599.218628,372.955414 599.030396,373.485016 
	C592.686096,391.334808 586.318054,409.176514 580.065491,427.058594 
	C567.450867,463.135834 554.877686,499.227631 542.338196,535.331116 
	C538.106995,547.513489 534.029541,559.749207 529.265869,572.373657 
	C524.822571,585.221497 520.432739,598.088196 515.922974,610.912659 
	C509.692169,628.631409 503.370911,646.318359 496.923462,663.259521 
	C496.759216,662.789917 496.569275,662.327637 496.434296,661.849731 
	C484.126343,618.268311 471.828857,574.683899 459.516663,531.103699 
	C448.288055,491.358978 437.067017,451.612091 425.786102,411.882202 
	C423.660980,404.397949 422.748657,396.031250 418.681396,389.753052 
	C411.155396,378.135834 401.710907,367.761536 392.407440,356.339539 
	C375.993591,355.890167 359.582092,355.232208 343.165253,355.044983 
	C323.375732,354.819275 303.581665,354.991425 283.789551,354.997223 
	C281.960602,354.997772 280.099518,354.864014 278.324982,355.186584 
	C277.871643,355.269012 277.692230,356.858612 277.295166,358.550964 
z"/>
<path fill="#99972D" opacity="1.000000" stroke="none" 
	d="
M1293.158203,505.993042 
	C1293.102051,540.868164 1293.046265,575.743225 1292.989380,610.618347 
	C1292.980469,616.099060 1292.966309,621.579773 1292.474243,627.531616 
	C1287.212646,628.419861 1282.407349,628.663940 1277.661377,629.331421 
	C1275.482910,629.637878 1273.043091,630.306213 1271.389038,631.638672 
	C1268.368652,634.071838 1265.981079,633.852417 1262.903931,631.774719 
	C1259.740234,629.638733 1256.147583,628.138062 1252.342407,626.150208 
	C1252.170410,629.556885 1252.053223,631.877625 1251.936035,634.198425 
	C1251.277710,634.491516 1250.619263,634.784607 1249.960938,635.077759 
	C1249.229492,633.404785 1248.498047,631.731812 1248.269653,631.209351 
	C1244.844849,631.982056 1242.765015,632.451355 1240.685303,632.920593 
	C1240.511597,630.874329 1240.337891,628.828125 1240.078369,625.771790 
	C1237.601562,628.852783 1235.452881,631.525574 1232.723389,634.920837 
	C1230.199463,628.860291 1226.599731,630.608643 1222.885254,632.863464 
	C1222.208740,633.274109 1221.124023,633.764587 1220.567017,633.501160 
	C1216.088135,631.382812 1212.211792,633.641418 1208.128052,634.518738 
	C1208.071289,598.391602 1208.778320,562.708008 1207.803833,527.070312 
	C1207.327148,509.639038 1210.843384,494.288330 1219.391113,479.138123 
	C1230.182373,460.011414 1239.382080,439.986786 1249.542480,420.144348 
	C1251.199829,419.025635 1252.531372,418.020050 1253.973511,417.212219 
	C1275.471191,405.171539 1296.943848,393.084686 1318.544067,381.230499 
	C1321.157593,379.796234 1324.482544,378.991730 1327.471924,379.008026 
	C1379.931396,379.294067 1432.390381,379.712280 1484.847534,380.277161 
	C1488.009399,380.311218 1491.461426,381.237274 1494.260620,382.723633 
	C1517.638062,395.136475 1540.929688,407.713348 1564.124634,420.463623 
	C1566.161255,421.583191 1568.113647,424.059875 1568.770630,426.298004 
	C1574.865601,447.059509 1580.712280,467.894592 1586.527100,488.737305 
	C1588.266602,494.972900 1590.566895,501.232513 1591.048584,507.599243 
	C1591.926514,519.203735 1591.480103,530.902527 1591.918091,542.549500 
	C1592.075317,546.729980 1590.364868,547.592957 1586.662720,547.541870 
	C1560.185547,547.176270 1533.706299,546.950867 1507.173096,546.234253 
	C1506.971924,534.460449 1507.112305,523.118530 1506.537109,511.813080 
	C1506.308960,507.332672 1505.132446,502.641266 1503.272217,498.553619 
	C1498.447876,487.953094 1493.159180,477.551880 1487.683350,467.269501 
	C1486.514771,465.075195 1484.045410,463.029144 1481.703857,462.088928 
	C1460.606934,453.617249 1438.809326,449.273438 1415.912842,450.948730 
	C1407.797363,451.542572 1399.539429,451.521240 1391.442017,450.761780 
	C1372.512695,448.986481 1354.749023,452.699371 1337.707397,460.682526 
	C1335.927368,461.516418 1333.987671,462.328918 1332.613159,463.658783 
	C1320.042236,475.821747 1307.525146,488.042297 1295.169434,500.422729 
	C1293.906494,501.688141 1293.800781,504.108551 1293.158203,505.993042 
z"/>
<path fill="#929027" opacity="1.000000" stroke="none" 
	d="
M1208.199219,634.981140 
	C1212.211792,633.641418 1216.088135,631.382812 1220.567017,633.501160 
	C1221.124023,633.764587 1222.208740,633.274109 1222.885254,632.863464 
	C1226.599731,630.608643 1230.199463,628.860291 1232.723389,634.920837 
	C1235.452881,631.525574 1237.601562,628.852783 1240.078369,625.771790 
	C1240.337891,628.828125 1240.511597,630.874329 1240.685303,632.920593 
	C1242.765015,632.451355 1244.844849,631.982056 1248.269653,631.209351 
	C1248.498047,631.731812 1249.229492,633.404785 1249.960938,635.077759 
	C1250.619263,634.784607 1251.277710,634.491516 1251.936035,634.198425 
	C1252.053223,631.877625 1252.170410,629.556885 1252.342407,626.150208 
	C1256.147583,628.138062 1259.740234,629.638733 1262.903931,631.774719 
	C1265.981079,633.852417 1268.368652,634.071838 1271.389038,631.638672 
	C1273.043091,630.306213 1275.482910,629.637878 1277.661377,629.331421 
	C1282.407349,628.663940 1287.212646,628.419861 1292.413574,627.996155 
	C1292.891846,640.484009 1292.804565,652.982361 1293.139038,665.469421 
	C1293.201538,667.802063 1294.397827,670.628052 1296.020630,672.309753 
	C1306.086548,682.739929 1316.764282,692.596375 1326.546387,703.277466 
	C1332.709229,710.006714 1340.059082,714.056152 1348.373779,717.001526 
	C1353.308960,718.749756 1358.132324,720.817139 1363.084961,722.510193 
	C1365.369629,723.291199 1367.835327,723.880066 1370.232544,723.932190 
	C1378.227173,724.106262 1386.229614,723.893127 1394.225952,724.019043 
	C1412.499390,724.306824 1430.771118,724.707581 1449.853027,725.118774 
	C1451.526611,724.882446 1452.390747,724.589966 1453.254761,724.297363 
	C1453.254761,724.297363 1453.117065,724.271484 1453.454590,724.336975 
	C1454.617920,724.038879 1455.443970,723.675293 1456.269897,723.311768 
	C1456.269897,723.311707 1456.125854,723.285583 1456.461304,723.354858 
	C1457.630615,723.078796 1458.464478,722.733459 1459.298462,722.388184 
	C1459.298462,722.388184 1459.169800,722.377502 1459.573120,722.414612 
	C1464.430664,721.086426 1468.802979,719.260559 1473.356079,718.451294 
	C1483.019531,716.733582 1489.670532,711.849060 1492.726318,702.323853 
	C1493.327759,700.449402 1494.336060,698.631470 1495.480103,697.016663 
	C1506.882568,680.922607 1510.558838,663.024170 1508.064209,643.673584 
	C1507.815430,641.744385 1507.246338,639.856506 1506.825806,637.949402 
	C1507.310547,628.669128 1509.327393,627.214905 1518.595703,629.273376 
	C1520.503540,629.697205 1522.490723,629.956482 1524.442261,629.961060 
	C1545.374023,630.009949 1566.305786,629.984436 1587.237671,630.006958 
	C1589.052612,630.008911 1590.867432,630.207397 1592.964966,631.109253 
	C1593.441772,644.050354 1593.719360,656.196472 1593.772705,668.343506 
	C1593.786377,671.462952 1593.419067,674.665771 1592.672119,677.693481 
	C1587.771606,697.559753 1582.772827,717.402344 1577.687866,737.222229 
	C1575.834229,744.447205 1573.657837,751.589355 1571.286865,758.828491 
	C1547.727539,771.257446 1524.466919,783.547485 1501.328613,796.063354 
	C1496.637695,798.600769 1492.010986,799.783386 1486.637695,799.704712 
	C1434.342407,798.939575 1382.043335,798.430420 1329.748413,797.641296 
	C1326.294189,797.589233 1322.483276,796.509277 1319.485840,794.783020 
	C1297.555298,782.152466 1275.749634,769.302307 1254.030396,756.311035 
	C1251.640991,754.881714 1249.483765,752.418091 1248.180420,749.930481 
	C1242.541748,739.167725 1237.225708,728.234924 1231.857544,717.331848 
	C1223.770142,700.906006 1215.737183,684.453430 1207.764282,667.549438 
	C1207.964722,656.384766 1208.082031,645.682983 1208.199219,634.981140 
z"/>
<path fill="#929027" opacity="1.000000" stroke="none" 
	d="
M497.088440,664.018921 
	C503.370911,646.318359 509.692169,628.631409 515.922974,610.912659 
	C520.432739,598.088196 524.822571,585.221497 529.970581,572.196045 
	C533.499329,573.510315 536.329407,574.990906 539.145142,576.498352 
	C540.812866,577.391235 542.593811,579.292297 544.090332,579.081543 
	C552.137451,577.948364 558.932800,579.872925 564.555725,585.838928 
	C564.983215,586.292480 566.009888,586.181396 567.075928,586.397095 
	C567.263611,584.589233 567.415649,583.124817 567.581055,581.531555 
	C573.884521,584.298157 579.695740,585.002502 584.640381,583.584290 
	C584.878845,588.347290 588.354919,588.947815 592.127441,589.638672 
	C597.309387,590.587646 602.388977,592.083496 607.537537,593.232361 
	C610.670898,593.931519 613.851624,594.418518 616.968628,595.371826 
	C607.438965,620.106384 597.958069,644.472473 588.463013,668.833069 
	C572.979980,708.556030 557.487732,748.275330 541.532715,788.044067 
	C537.081055,788.086670 533.095703,788.111206 529.111084,788.071350 
	C494.738464,787.727600 460.365967,787.372253 425.776825,786.731201 
	C424.929596,784.724548 424.239075,783.026367 423.677124,781.286743 
	C408.726898,735.002747 393.769684,688.721069 378.857788,642.424683 
	C369.053833,611.986633 359.318573,581.526489 349.926575,551.168396 
	C353.805206,555.327759 357.309814,559.394897 360.119476,562.655518 
	C363.161407,563.541077 365.760406,563.867004 367.911865,565.024658 
	C371.153809,566.769104 373.463745,567.292297 376.845795,564.554688 
	C378.709656,563.046021 382.991241,563.416748 385.700745,564.345886 
	C388.949951,565.460205 386.684052,568.078003 385.916473,570.198120 
	C384.725494,573.487671 386.727509,575.596924 390.257904,575.266113 
	C391.961853,575.106384 394.276428,574.732666 395.329498,575.622131 
	C398.460449,578.266602 401.557983,578.325195 405.111542,577.034851 
	C405.953033,576.729309 407.522797,576.621765 407.888336,577.094788 
	C411.246277,581.440430 415.052124,581.062378 419.125580,577.546570 
	C419.623535,579.228455 419.897369,579.999756 420.079407,580.792114 
	C421.862030,588.550964 423.103271,589.194336 430.672943,587.113464 
	C432.462341,586.621521 434.732971,586.654968 436.431183,587.330078 
	C439.321930,588.479004 441.879730,590.436279 444.679962,591.851013 
	C447.139557,593.093689 449.749084,595.296631 453.278046,591.050415 
	C451.464600,590.174866 449.820984,589.381287 447.304657,588.166382 
	C450.516357,586.172546 452.313629,585.056763 454.299042,584.256226 
	C464.997528,621.563232 475.507874,658.554993 486.018219,695.546753 
	C486.537659,695.599792 487.057068,695.652832 487.576508,695.705872 
	C490.747162,685.143555 493.917816,674.581238 497.088440,664.018921 
z"/>
<path fill="#929027" opacity="1.000000" stroke="none" 
	d="
M854.039917,706.863403 
	C873.720642,716.248413 893.685242,725.093384 912.970703,735.230347 
	C923.736694,740.889160 932.525391,742.981689 944.539917,736.741821 
	C966.268494,725.456787 989.352051,716.788086 1011.773132,706.809387 
	C1013.014038,706.257080 1014.015808,703.734436 1014.041687,702.111511 
	C1014.248657,689.143433 1014.193481,676.171143 1014.445068,662.691162 
	C1014.671631,662.182129 1015.129578,662.028198 1015.275513,662.410339 
	C1015.618286,668.089783 1015.882812,673.385559 1015.997192,678.684631 
	C1016.202209,688.173340 1020.019714,690.873108 1029.096191,688.258789 
	C1031.304443,687.622864 1034.818726,687.106689 1036.051392,688.288574 
	C1040.547852,692.599976 1043.616455,690.599426 1046.793457,687.012390 
	C1048.611084,684.960327 1050.300903,685.151550 1051.486694,687.497192 
	C1052.862793,690.219543 1054.299438,690.715393 1056.925659,688.841370 
	C1058.044556,688.043091 1059.972412,688.321594 1061.539795,688.224182 
	C1063.155884,688.123718 1065.140259,688.752502 1066.333984,688.026855 
	C1069.856445,685.885681 1072.945557,687.144470 1075.609253,689.051941 
	C1078.977905,691.464172 1081.718994,691.982178 1084.121826,688.165405 
	C1086.773193,689.663391 1089.043335,691.034607 1091.393555,692.251282 
	C1094.308838,693.760559 1096.828613,694.478088 1096.959106,689.607361 
	C1096.983154,688.714050 1098.651611,687.864685 1099.633057,687.458984 
	C1099.509155,709.395386 1099.313232,730.867676 1098.642334,752.373657 
	C1086.004883,752.279907 1073.838501,751.940491 1061.683716,752.185242 
	C1058.901733,752.241333 1055.530029,753.644043 1053.503784,755.561829 
	C1041.526245,766.898254 1029.788818,778.493164 1018.155518,790.185242 
	C1015.471741,792.882568 1012.765930,793.994080 1008.957825,793.940491 
	C955.813232,793.192871 902.665894,792.630615 849.522766,791.799133 
	C846.913574,791.758301 843.714111,790.282654 841.846375,788.417114 
	C830.414368,776.997314 819.179382,765.373352 808.128357,753.583435 
	C805.035461,750.283752 801.894409,748.835022 797.315674,748.861938 
	C785.337891,748.932373 773.356812,748.440613 761.382751,747.797485 
	C762.025269,713.283875 762.662048,679.145813 763.298828,645.007690 
	C768.004395,644.683777 772.708740,644.133789 777.416138,644.106079 
	C781.334900,644.082947 785.255920,644.929077 789.178162,644.948364 
	C808.548462,645.043518 827.919495,644.991638 848.042786,644.991638 
	C848.042786,647.575500 848.042786,649.817322 848.016479,652.934326 
	C847.645203,668.723877 847.264160,683.637512 846.972107,698.552856 
	C846.845825,705.002441 847.397278,705.553162 854.039917,706.863403 
M1074.749146,691.912170 
	C1074.162842,694.631226 1074.162842,694.631226 1079.157959,695.084351 
	C1077.256592,693.545349 1076.271606,692.748169 1074.749146,691.912170 
z"/>
<path fill="#98962C" opacity="1.000000" stroke="none" 
	d="
M617.011047,595.000854 
	C613.851624,594.418518 610.670898,593.931519 607.537537,593.232361 
	C602.388977,592.083496 597.309387,590.587646 592.127441,589.638672 
	C588.354919,588.947815 584.878845,588.347290 584.640381,583.584290 
	C579.695740,585.002502 573.884521,584.298157 567.581055,581.531555 
	C567.415649,583.124817 567.263611,584.589233 567.075928,586.397095 
	C566.009888,586.181396 564.983215,586.292480 564.555725,585.838928 
	C558.932800,579.872925 552.137451,577.948364 544.090332,579.081543 
	C542.593811,579.292297 540.812866,577.391235 539.145142,576.498352 
	C536.329407,574.990906 533.499329,573.510315 530.278503,571.989502 
	C534.029541,559.749207 538.106995,547.513489 542.338196,535.331116 
	C554.877686,499.227631 567.450867,463.135834 580.065491,427.058594 
	C586.318054,409.176514 592.686096,391.334808 599.030396,373.485016 
	C599.218628,372.955414 599.727539,372.539764 600.860596,372.159607 
	C604.114563,372.393860 606.593933,372.650391 609.075012,372.668213 
	C640.609436,372.894806 672.144043,373.087067 703.639282,373.628967 
	C702.935852,375.851166 702.326294,377.753723 701.599731,379.610504 
	C681.153259,431.864685 660.717590,484.123138 640.226501,536.359802 
	C632.933655,554.950989 625.501526,573.487488 617.934082,592.157104 
	C617.628113,592.906067 617.521118,593.546814 617.349243,594.408691 
	C617.284363,594.629822 617.011047,595.000854 617.011047,595.000854 
z"/>
<path fill="#96932B" opacity="1.000000" stroke="none" 
	d="
M1099.561157,686.994995 
	C1098.651611,687.864685 1096.983154,688.714050 1096.959106,689.607361 
	C1096.828613,694.478088 1094.308838,693.760559 1091.393555,692.251282 
	C1089.043335,691.034607 1086.773193,689.663391 1084.121826,688.165405 
	C1081.718994,691.982178 1078.977905,691.464172 1075.609253,689.051941 
	C1072.945557,687.144470 1069.856445,685.885681 1066.333984,688.026855 
	C1065.140259,688.752502 1063.155884,688.123718 1061.539795,688.224182 
	C1059.972412,688.321594 1058.044556,688.043091 1056.925659,688.841370 
	C1054.299438,690.715393 1052.862793,690.219543 1051.486694,687.497192 
	C1050.300903,685.151550 1048.611084,684.960327 1046.793457,687.012390 
	C1043.616455,690.599426 1040.547852,692.599976 1036.051392,688.288574 
	C1034.818726,687.106689 1031.304443,687.622864 1029.096191,688.258789 
	C1020.019714,690.873108 1016.202209,688.173340 1015.997192,678.684631 
	C1015.882812,673.385559 1015.618286,668.089783 1015.260498,661.940308 
	C1015.157166,656.423706 1014.943115,651.735413 1015.351868,647.102051 
	C1015.729370,642.823059 1014.383911,640.581665 1010.195312,638.935974 
	C985.235046,629.129150 960.412781,618.971619 935.491394,609.064636 
	C932.604431,607.916931 929.426392,607.253296 926.324707,606.933228 
	C901.967346,604.420593 877.591187,602.090149 853.235168,599.565002 
	C850.678223,599.299866 847.774353,598.747192 845.773560,597.301086 
	C819.039368,577.978943 792.437439,558.473755 765.810303,538.594604 
	C765.917419,536.781311 766.016846,535.387634 766.419006,534.124390 
	C775.413208,541.383484 775.409973,541.378906 781.323669,537.187927 
	C781.467834,537.085815 781.895203,537.383179 782.185852,537.492493 
	C781.688599,543.049988 782.908936,543.533020 788.728271,542.935669 
	C792.414856,542.557251 797.119995,542.965637 799.889771,545.017334 
	C803.673767,547.820190 806.104797,548.048767 809.157959,544.373840 
	C811.651062,547.263062 814.096741,548.691101 817.149231,545.462219 
	C817.636292,544.947083 819.438660,545.494202 820.558899,545.811768 
	C821.599243,546.106567 822.526794,547.141724 823.527832,547.177185 
	C829.441833,547.386536 835.829651,544.869934 840.743225,550.482117 
	C841.074280,550.860291 842.010437,550.702332 842.663208,550.806152 
	C847.177917,551.524231 851.710327,552.150085 856.199707,553.001892 
	C858.907715,553.515686 862.320923,553.578125 864.064941,555.252197 
	C868.144836,559.168762 871.956665,560.307373 877.678833,559.000427 
	C882.049500,558.002075 887.117126,560.426697 890.793945,555.734985 
	C891.373596,554.995300 893.478210,555.450684 894.877747,555.353577 
	C894.800354,556.553223 894.584106,557.765076 894.688782,558.948669 
	C894.775391,559.927246 895.288025,561.719482 895.531799,561.705933 
	C899.574097,561.482239 904.245544,562.143555 907.446045,560.298889 
	C910.338440,558.631775 911.643311,558.795654 913.788452,560.503845 
	C915.002441,561.470520 917.252075,563.171631 917.616150,562.863708 
	C922.569641,558.675354 927.828674,561.591125 932.940674,561.890930 
	C935.866394,562.062439 937.835510,561.121826 938.040466,557.882690 
	C949.861023,559.499573 961.681641,561.115417 973.502014,562.733582 
	C983.866943,564.152466 994.236633,565.537659 1004.593567,567.012695 
	C1008.453369,567.562439 1012.282837,568.324524 1016.702026,569.319519 
	C1017.825562,569.817505 1018.373352,569.985779 1018.921082,570.154053 
	C1018.921082,570.154053 1018.928040,570.083496 1018.974731,570.434448 
	C1020.558777,572.034546 1022.009827,573.411743 1023.646301,574.513672 
	C1047.261108,590.414124 1070.912354,606.260559 1094.514282,622.180115 
	C1096.547363,623.551392 1098.292847,625.348877 1100.131470,627.418762 
	C1099.914307,647.591064 1099.737793,667.293091 1099.561157,686.994995 
z"/>
<path fill="#0F0F0F" opacity="1.000000" stroke="none" 
	d="
M1207.681152,668.012207 
	C1215.737183,684.453430 1223.770142,700.906006 1231.857544,717.331848 
	C1237.225708,728.234924 1242.541748,739.167725 1248.180420,749.930481 
	C1249.483765,752.418091 1251.640991,754.881714 1254.030396,756.311035 
	C1275.749634,769.302307 1297.555298,782.152466 1319.485840,794.783020 
	C1322.483276,796.509277 1326.294189,797.589233 1329.748413,797.641296 
	C1382.043335,798.430420 1434.342407,798.939575 1486.637695,799.704712 
	C1492.010986,799.783386 1496.637695,798.600769 1501.328613,796.063354 
	C1524.466919,783.547485 1547.727539,771.257446 1571.536987,759.104004 
	C1576.092407,767.894775 1580.055786,776.469299 1584.019165,785.043823 
	C1578.140137,788.452820 1572.352539,792.032715 1566.365601,795.240417 
	C1543.771851,807.345459 1521.126587,819.354797 1498.452271,831.308044 
	C1496.759766,832.200256 1494.681274,832.816833 1492.788086,832.802124 
	C1468.659302,832.615601 1444.531494,832.281067 1420.403320,832.002258 
	C1390.447632,831.656189 1360.490967,831.380249 1330.536377,830.954529 
	C1322.560425,830.841125 1314.524536,830.786377 1306.645142,829.736694 
	C1302.567749,829.193542 1298.552124,826.907959 1294.886108,824.763977 
	C1271.605347,811.149414 1248.374512,797.446228 1225.288696,783.505005 
	C1222.345459,781.727539 1219.562012,778.788635 1218.021240,775.725586 
	C1203.505005,746.868835 1189.257202,717.876831 1175.002075,688.889465 
	C1174.067871,686.989868 1173.706421,684.808655 1173.449341,682.348511 
	C1178.301636,680.249023 1182.833130,678.679443 1187.253052,676.842041 
	C1194.102417,673.994690 1200.875610,670.964722 1207.681152,668.012207 
z"/>
<path fill="#262626" opacity="1.000000" stroke="none" 
	d="
M616.968628,595.371826 
	C617.011047,595.000854 617.284363,594.629822 617.509644,594.170105 
	C617.867554,593.156555 618.000244,592.602783 618.132935,592.048950 
	C625.501526,573.487488 632.933655,554.950989 640.226501,536.359802 
	C660.717590,484.123138 681.153259,431.864685 701.599731,379.610504 
	C702.326294,377.753723 702.935852,375.851166 704.034668,373.540100 
	C716.565552,368.684143 728.661621,364.257996 740.757751,359.831818 
	C738.015808,367.820770 735.548218,375.916473 732.489075,383.782043 
	C704.376282,456.064789 676.172791,528.312256 647.971924,600.560730 
	C626.184814,656.377563 604.356689,712.178406 582.561584,767.992126 
	C575.357117,786.441650 568.203186,804.910828 561.007996,823.364014 
	C560.587402,824.442505 560.003357,825.457214 559.007080,826.749023 
	C558.350891,826.993164 558.183167,826.989868 558.015442,826.986633 
	C558.015442,826.986633 557.997559,826.995300 557.954590,826.616211 
	C557.310730,824.535889 556.796570,822.797974 556.095093,821.139343 
	C551.418884,810.082214 546.702637,799.041931 541.999390,787.996216 
	C557.487732,748.275330 572.979980,708.556030 588.463013,668.833069 
	C597.958069,644.472473 607.438965,620.106384 616.968628,595.371826 
z"/>
<path fill="#1D1D1C" opacity="1.000000" stroke="none" 
	d="
M761.377075,748.172974 
	C773.356812,748.440613 785.337891,748.932373 797.315674,748.861938 
	C801.894409,748.835022 805.035461,750.283752 808.128357,753.583435 
	C819.179382,765.373352 830.414368,776.997314 841.846375,788.417114 
	C843.714111,790.282654 846.913574,791.758301 849.522766,791.799133 
	C902.665894,792.630615 955.813232,793.192871 1008.957825,793.940491 
	C1012.765930,793.994080 1015.471741,792.882568 1018.155518,790.185242 
	C1029.788818,778.493164 1041.526245,766.898254 1053.503784,755.561829 
	C1055.530029,753.644043 1058.901733,752.241333 1061.683716,752.185242 
	C1073.838501,751.940491 1086.004883,752.279907 1098.829834,752.620728 
	C1106.699829,761.794800 1113.907104,770.755432 1121.114502,779.716064 
	C1107.458496,779.813110 1093.801880,780.013367 1080.146729,779.942505 
	C1076.186035,779.921997 1073.250488,781.165527 1070.430664,783.963440 
	C1057.078247,797.211792 1043.655029,810.394653 1029.969971,823.296143 
	C1027.813965,825.328674 1024.182373,826.840149 1021.237732,826.832275 
	C986.944092,826.740112 952.651001,826.338989 918.358459,825.960205 
	C893.393372,825.684509 868.429749,825.221436 843.464172,825.076843 
	C838.304749,825.047058 834.606934,823.702148 830.903259,819.696350 
	C818.363586,806.134033 805.379028,792.971985 792.237183,779.988220 
	C790.038086,777.815613 786.248840,776.307495 783.127075,776.183289 
	C771.817200,775.733154 760.478455,776.036255 749.151123,775.972351 
	C747.011047,775.960327 744.873047,775.569519 742.519653,774.848389 
	C748.662537,765.619812 755.019775,756.896423 761.377075,748.172974 
z"/>
<path fill="#1D1D1C" opacity="1.000000" stroke="none" 
	d="
M1507.227783,546.680847 
	C1533.706299,546.950867 1560.185547,547.176270 1586.662720,547.541870 
	C1590.364868,547.592957 1592.075317,546.729980 1591.918091,542.549500 
	C1591.480103,530.902527 1591.926514,519.203735 1591.048584,507.599243 
	C1590.566895,501.232513 1588.266602,494.972900 1586.527100,488.737305 
	C1580.712280,467.894592 1574.865601,447.059509 1568.770630,426.298004 
	C1568.113647,424.059875 1566.161255,421.583191 1564.124634,420.463623 
	C1540.929688,407.713348 1517.638062,395.136475 1494.260620,382.723633 
	C1491.461426,381.237274 1488.009399,380.311218 1484.847534,380.277161 
	C1432.390381,379.712280 1379.931396,379.294067 1327.471924,379.008026 
	C1324.482544,378.991730 1321.157593,379.796234 1318.544067,381.230499 
	C1296.943848,393.084686 1275.471191,405.171539 1253.973511,417.212219 
	C1252.531372,418.020050 1251.199829,419.025635 1249.305908,419.866943 
	C1247.349976,418.729309 1245.995117,417.504852 1244.444580,416.625488 
	C1236.880249,412.335876 1229.263550,408.138458 1221.665405,403.908386 
	C1233.180542,397.245789 1244.653076,390.508331 1256.221802,383.940277 
	C1269.537476,376.380646 1282.832031,368.770386 1296.369263,361.624298 
	C1300.175415,359.615112 1304.786743,358.219086 1309.054565,358.150543 
	C1330.538696,357.805542 1352.032227,357.878418 1373.521118,358.018585 
	C1410.813965,358.261841 1448.106079,358.619385 1485.396729,359.080963 
	C1488.280518,359.116638 1491.456665,359.769409 1493.977783,361.110840 
	C1517.780640,373.775543 1541.111206,387.394501 1565.354248,399.135590 
	C1576.469482,404.518799 1580.994629,412.247101 1583.842163,423.370911 
	C1590.240356,448.364532 1597.714722,473.082031 1604.668945,497.934875 
	C1605.379761,500.475342 1605.865601,503.167847 1605.892456,505.795563 
	C1606.020386,518.288269 1605.863647,530.783997 1606.009766,543.276367 
	C1606.053711,547.036743 1604.666504,549.081421 1601.024536,550.150330 
	C1591.120239,553.057678 1581.311890,556.291870 1571.403320,559.183838 
	C1569.058716,559.868103 1566.470825,559.915894 1563.994263,559.920349 
	C1539.006104,559.964844 1514.017944,559.939331 1488.707764,559.642822 
	C1490.765991,557.695801 1493.122681,556.004272 1495.531982,554.391479 
	C1499.412231,551.793945 1503.327393,549.248352 1507.227783,546.680847 
z"/>
<path fill="#99972D" opacity="1.000000" stroke="none" 
	d="
M937.807678,557.564453 
	C937.835510,561.121826 935.866394,562.062439 932.940674,561.890930 
	C927.828674,561.591125 922.569641,558.675354 917.616150,562.863708 
	C917.252075,563.171631 915.002441,561.470520 913.788452,560.503845 
	C911.643311,558.795654 910.338440,558.631775 907.446045,560.298889 
	C904.245544,562.143555 899.574097,561.482239 895.531799,561.705933 
	C895.288025,561.719482 894.775391,559.927246 894.688782,558.948669 
	C894.584106,557.765076 894.800354,556.553223 894.877747,555.353577 
	C893.478210,555.450684 891.373596,554.995300 890.793945,555.734985 
	C887.117126,560.426697 882.049500,558.002075 877.678833,559.000427 
	C871.956665,560.307373 868.144836,559.168762 864.064941,555.252197 
	C862.320923,553.578125 858.907715,553.515686 856.199707,553.001892 
	C851.710327,552.150085 847.177917,551.524231 842.663208,550.806152 
	C842.010437,550.702332 841.074280,550.860291 840.743225,550.482117 
	C835.829651,544.869934 829.441833,547.386536 823.527832,547.177185 
	C822.526794,547.141724 821.599243,546.106567 820.558899,545.811768 
	C819.438660,545.494202 817.636292,544.947083 817.149231,545.462219 
	C814.096741,548.691101 811.651062,547.263062 809.157959,544.373840 
	C806.104797,548.048767 803.673767,547.820190 799.889771,545.017334 
	C797.119995,542.965637 792.414856,542.557251 788.728271,542.935669 
	C782.908936,543.533020 781.688599,543.049988 782.185852,537.492493 
	C781.895203,537.383179 781.467834,537.085815 781.323669,537.187927 
	C775.409973,541.378906 775.413208,541.383484 766.360474,533.659424 
	C766.744934,498.039703 767.490723,463.015594 768.610352,427.967529 
	C774.461426,428.667511 780.160889,428.702545 785.333374,430.371185 
	C788.485779,431.388123 790.425110,436.680634 794.707092,432.189117 
	C794.904419,431.982086 795.822449,432.096771 796.081116,432.369110 
	C799.255249,435.710205 802.892761,434.939240 806.774353,434.012085 
	C807.806519,433.765564 809.172791,435.383301 810.494263,435.803375 
	C816.571899,437.735443 822.965210,441.591522 828.710388,440.812500 
	C834.198120,440.068451 838.116699,439.019531 841.002563,444.266418 
	C844.655212,442.835876 847.845947,439.574982 850.882935,443.672302 
	C852.969849,446.487701 855.505798,446.576782 858.404114,445.929199 
	C864.479187,444.571899 869.880859,446.502838 874.871582,449.482666 
	C868.259583,452.598358 861.963623,455.624756 855.523254,458.304138 
	C852.759949,459.453796 851.942505,461.104706 851.910156,463.966095 
	C851.705139,482.081390 851.483215,500.199432 850.921204,518.305847 
	C850.772766,523.086731 852.333191,525.475586 857.045105,525.795227 
	C878.481628,534.560669 899.885620,543.407043 921.377869,552.033630 
	C926.628418,554.140991 932.168152,555.528015 937.807678,557.564453 
z"/>
<path fill="#141413" opacity="1.000000" stroke="none" 
	d="
M1221.405396,404.088684 
	C1229.263550,408.138458 1236.880249,412.335876 1244.444580,416.625488 
	C1245.995117,417.504852 1247.349976,418.729309 1249.031738,420.072083 
	C1239.382080,439.986786 1230.182373,460.011414 1219.391113,479.138123 
	C1210.843384,494.288330 1207.327148,509.639038 1207.803833,527.070312 
	C1208.778320,562.708008 1208.071289,598.391602 1208.128052,634.518738 
	C1208.082031,645.682983 1207.964722,656.384766 1207.764282,667.549438 
	C1200.875610,670.964722 1194.102417,673.994690 1187.253052,676.842041 
	C1182.833130,678.679443 1178.301636,680.249023 1173.437256,681.959351 
	C1173.040527,625.377075 1172.956421,568.773743 1173.081177,512.170959 
	C1173.102417,502.523773 1174.844238,493.328827 1179.574829,484.413635 
	C1192.835083,459.423218 1205.299316,434.010712 1218.121826,408.787231 
	C1218.937256,407.183319 1220.128906,405.770660 1221.405396,404.088684 
z"/>
<path fill="#3A3A39" opacity="1.000000" stroke="none" 
	d="
M497.005981,663.639221 
	C493.917816,674.581238 490.747162,685.143555 487.576508,695.705872 
	C487.057068,695.652832 486.537659,695.599792 486.018219,695.546753 
	C475.507874,658.554993 464.997528,621.563232 454.153076,583.912720 
	C450.369507,570.538086 446.996216,557.800964 443.452972,545.111328 
	C437.993591,525.559326 432.425751,506.037567 426.889526,486.507080 
	C415.954590,447.931030 405.009766,409.357788 394.048126,370.368225 
	C393.706665,365.591858 393.386078,361.230713 393.065491,356.869537 
	C401.710907,367.761536 411.155396,378.135834 418.681396,389.753052 
	C422.748657,396.031250 423.660980,404.397949 425.786102,411.882202 
	C437.067017,451.612091 448.288055,491.358978 459.516663,531.103699 
	C471.828857,574.683899 484.126343,618.268311 496.434296,661.849731 
	C496.569275,662.327637 496.759216,662.789917 497.005981,663.639221 
z"/>
<path fill="#99972D" opacity="1.000000" stroke="none" 
	d="
M1016.187866,518.751831 
	C1016.199036,505.167267 1016.210205,491.582733 1016.482178,477.201111 
	C1018.022278,462.340179 1018.022034,462.340637 1005.535339,456.048920 
	C1005.240906,455.900543 1004.968262,455.708893 1005.032593,455.315308 
	C1007.468689,454.926392 1009.928284,453.962921 1011.581604,454.732269 
	C1018.332458,457.873871 1024.036255,455.420197 1029.974854,452.517853 
	C1031.570068,451.738312 1033.869263,452.399841 1035.119873,452.399841 
	C1034.800171,455.280426 1033.758301,458.108643 1034.545532,458.774658 
	C1037.149658,460.977692 1037.626221,457.172394 1039.059204,456.597717 
	C1041.914795,455.452667 1046.054932,454.528900 1048.443848,455.802765 
	C1053.984009,458.756958 1059.514771,459.030914 1063.784424,454.627411 
	C1065.092651,455.425293 1066.453491,456.255280 1066.886963,456.519653 
	C1070.221680,455.567291 1072.994263,453.830414 1075.103882,454.429230 
	C1077.375977,455.074158 1079.026733,457.907806 1081.947388,460.763062 
	C1082.363892,455.178162 1084.146851,453.565033 1088.244019,456.011505 
	C1089.124878,456.537445 1091.547607,455.987122 1092.198486,455.128174 
	C1094.860840,451.614685 1099.973877,449.591125 1099.274658,443.861664 
	C1099.168457,442.992340 1100.385376,441.961578 1101.063843,441.468994 
	C1101.095215,467.624969 1101.053101,493.317413 1100.658936,519.232605 
	C1072.267334,519.220825 1044.227539,518.986328 1016.187866,518.751831 
z"/>
<path fill="#1D1D1C" opacity="1.000000" stroke="none" 
	d="
M541.532715,788.044067 
	C546.702637,799.041931 551.418884,810.082214 556.095093,821.139343 
	C556.796570,822.797974 557.310730,824.535889 557.963013,826.607300 
	C533.049622,826.981323 508.083984,827.109436 483.120270,826.945801 
	C466.165771,826.834717 449.212250,826.373657 432.263519,825.886597 
	C430.544006,825.837158 428.860657,824.528748 427.212036,823.084473 
	C427.397247,820.911560 427.706970,819.450134 427.636536,818.007324 
	C427.132233,807.676208 426.550537,797.348877 425.993469,787.020386 
	C460.365967,787.372253 494.738464,787.727600 529.111084,788.071350 
	C533.095703,788.111206 537.081055,788.086670 541.532715,788.044067 
z"/>
<path fill="#252523" opacity="1.000000" stroke="none" 
	d="
M425.776855,786.731201 
	C426.550537,797.348877 427.132233,807.676208 427.636536,818.007324 
	C427.706970,819.450134 427.397247,820.911560 427.099701,822.722900 
	C421.289551,806.208435 415.505768,789.380127 410.022552,772.454346 
	C393.256073,720.699036 376.601288,668.907532 359.910522,617.127686 
	C347.252289,577.858032 334.590973,538.589233 321.957397,499.311646 
	C307.388306,454.016479 292.843109,408.713654 278.316925,363.404694 
	C277.814819,361.838562 277.628632,360.171173 277.643616,358.266815 
	C282.360718,362.023865 286.729401,366.065063 291.139282,370.475769 
	C300.207489,398.838013 309.205017,426.840363 318.269165,454.821075 
	C328.666138,486.916138 339.122192,518.992004 349.552582,551.076233 
	C359.318573,581.526489 369.053833,611.986633 378.857788,642.424683 
	C393.769684,688.721069 408.726898,735.002747 423.677124,781.286743 
	C424.239075,783.026367 424.929596,784.724548 425.776855,786.731201 
z"/>
<path fill="#0F0F0F" opacity="1.000000" stroke="none" 
	d="
M1507.173096,546.234253 
	C1503.327393,549.248352 1499.412231,551.793945 1495.531982,554.391479 
	C1493.122681,556.004272 1490.765991,557.695801 1488.245850,559.643738 
	C1487.402222,557.651489 1486.147583,555.381104 1486.091309,553.081299 
	C1485.859375,543.589722 1486.208496,534.081726 1485.875854,524.596130 
	C1485.751831,521.058228 1484.912476,517.302246 1483.421997,514.100647 
	C1478.712402,503.984253 1473.439331,494.131744 1468.601440,484.072784 
	C1466.863403,480.458954 1464.363037,478.224121 1460.496094,477.380463 
	C1459.033569,477.061401 1457.522217,476.773529 1456.171265,476.165161 
	C1438.689575,468.292816 1420.273193,467.164612 1401.437378,467.877625 
	C1391.320923,468.260559 1381.130859,467.706909 1371.019165,466.961639 
	C1357.743286,465.983154 1345.366333,468.619934 1333.107666,473.634430 
	C1325.427612,476.776031 1318.444336,480.232880 1312.784912,486.557526 
	C1306.797852,493.248352 1300.077393,499.282776 1293.417725,505.798462 
	C1293.800781,504.108551 1293.906494,501.688141 1295.169434,500.422729 
	C1307.525146,488.042297 1320.042236,475.821747 1332.613159,463.658783 
	C1333.987671,462.328918 1335.927368,461.516418 1337.707397,460.682526 
	C1354.749023,452.699371 1372.512695,448.986481 1391.442017,450.761780 
	C1399.539429,451.521240 1407.797363,451.542572 1415.912842,450.948730 
	C1438.809326,449.273438 1460.606934,453.617249 1481.703857,462.088928 
	C1484.045410,463.029144 1486.514771,465.075195 1487.683350,467.269501 
	C1493.159180,477.551880 1498.447876,487.953094 1503.272217,498.553619 
	C1505.132446,502.641266 1506.308960,507.332672 1506.537109,511.813080 
	C1507.112305,523.118530 1506.971924,534.460449 1507.173096,546.234253 
z"/>
<path fill="#4F4F4F" opacity="1.000000" stroke="none" 
	d="
M844.022888,354.179962 
	C870.300415,354.123230 896.578674,353.913055 922.855225,354.048065 
	C956.578369,354.221405 990.300171,354.666687 1024.022339,355.016296 
	C1026.173218,355.038605 1028.322388,355.246185 1030.525024,355.893677 
	C1026.655762,363.079071 1022.733765,369.738342 1018.359985,376.334564 
	C1015.410889,376.213348 1012.913879,376.123291 1010.416199,376.101746 
	C957.604553,375.645844 904.792847,375.197632 851.879211,374.412384 
	C849.192444,367.444580 846.607666,360.812286 844.022888,354.179962 
z"/>
<path fill="#1D1D1C" opacity="1.000000" stroke="none" 
	d="
M1004.685486,455.537415 
	C1004.968262,455.708893 1005.240906,455.900543 1005.535339,456.048920 
	C1018.022034,462.340637 1018.022278,462.340179 1016.481140,476.736694 
	C1006.196472,472.585693 996.134888,468.186249 986.160095,463.598267 
	C971.339966,456.781616 956.537903,449.922058 941.826172,442.876129 
	C938.032898,441.059387 934.776367,441.893158 931.344666,443.423187 
	C912.492432,451.828461 893.631042,460.213165 874.779480,468.619995 
	C870.522461,470.518402 866.351440,472.624847 862.028625,474.355316 
	C859.102112,475.526825 858.063904,477.442780 858.012268,480.473572 
	C857.759705,495.278564 857.381287,510.081421 857.046265,525.340088 
	C852.333191,525.475586 850.772766,523.086731 850.921204,518.305847 
	C851.483215,500.199432 851.705139,482.081390 851.910156,463.966095 
	C851.942505,461.104706 852.759949,459.453796 855.523254,458.304138 
	C861.963623,455.624756 868.259583,452.598358 875.230469,449.416260 
	C892.687744,441.593628 909.619446,434.260834 926.315979,426.427063 
	C931.557068,423.968079 935.770508,423.700134 941.185913,426.313324 
	C959.132568,434.973267 977.400818,442.966919 995.802246,451.442932 
	C997.709961,452.374634 999.361084,453.079559 1001.289551,453.984009 
	C1002.606445,454.634827 1003.645935,455.086121 1004.685486,455.537415 
z"/>
<path fill="#2F2F2E" opacity="1.000000" stroke="none" 
	d="
M1121.444824,779.564819 
	C1113.907104,770.755432 1106.699829,761.794800 1099.304932,752.587097 
	C1099.313232,730.867676 1099.509155,709.395386 1099.633057,687.459045 
	C1099.737793,667.293091 1099.914307,647.591064 1100.491943,627.472534 
	C1102.737305,627.747742 1104.582764,628.436951 1106.426025,629.131653 
	C1110.704346,630.743835 1114.981445,632.358826 1119.259033,633.972595 
	C1119.259033,633.972595 1119.683350,633.993164 1120.046265,634.205994 
	C1120.636230,634.615784 1120.854004,634.822632 1121.062500,635.039307 
	C1121.062500,635.039307 1120.961304,635.042297 1121.139771,635.163696 
	C1121.552734,635.520203 1121.783569,635.758911 1122.010742,636.001160 
	C1122.340088,638.098267 1122.954224,640.195068 1122.956665,642.292603 
	C1123.009399,685.957764 1123.009277,729.622986 1122.938477,773.288147 
	C1122.935181,775.330566 1122.180176,777.371765 1121.444824,779.564819 
z"/>
<path fill="#252523" opacity="1.000000" stroke="none" 
	d="
M765.802612,539.014038 
	C792.437439,558.473755 819.039368,577.978943 845.773560,597.301086 
	C847.774353,598.747192 850.678223,599.299866 853.235168,599.565002 
	C877.591187,602.090149 901.967346,604.420593 926.324707,606.933228 
	C929.426392,607.253296 932.604431,607.916931 935.491394,609.064636 
	C960.412781,618.971619 985.235046,629.129150 1010.195312,638.935974 
	C1014.383911,640.581665 1015.729370,642.823059 1015.351868,647.102051 
	C1014.943115,651.735413 1015.157166,656.423706 1015.114563,661.558105 
	C1015.129578,662.028198 1014.671631,662.182129 1014.437378,662.241272 
	C1016.081970,651.983154 1010.847290,647.693115 1001.532593,644.381897 
	C981.175842,637.145691 961.424683,628.220276 941.154053,620.720154 
	C933.969116,618.061768 926.053101,617.041321 918.369202,616.131531 
	C893.977295,613.243591 869.519470,610.909607 845.134521,607.968811 
	C841.222656,607.497070 837.079895,605.672668 833.847900,603.353210 
	C810.481934,586.584473 787.317139,569.535156 764.101990,552.556580 
	C758.207886,548.245911 752.361877,543.869690 746.792236,539.240295 
	C753.328003,538.976074 759.565308,538.995056 765.802612,539.014038 
z"/>
<path fill="#2F2F2E" opacity="1.000000" stroke="none" 
	d="
M765.810303,538.594543 
	C759.565308,538.995056 753.328003,538.976074 746.637939,538.949707 
	C746.482483,513.661072 746.726074,488.379089 747.105835,463.099091 
	C747.240601,454.132599 747.724670,445.171631 748.017456,436.207092 
	C748.402710,424.413971 748.756409,412.619812 749.476196,400.484955 
	C755.967590,405.173462 762.106384,410.203094 768.275696,415.430420 
	C768.306152,415.628113 768.437378,416.005371 768.353882,416.458984 
	C768.259033,420.605530 768.247742,424.298492 768.236450,427.991455 
	C767.490723,463.015594 766.744934,498.039703 766.057678,533.528870 
	C766.016846,535.387634 765.917419,536.781311 765.810303,538.594543 
z"/>
<path fill="#2F2F2E" opacity="1.000000" stroke="none" 
	d="
M1101.010864,519.009888 
	C1101.053101,493.317413 1101.095215,467.624969 1101.139160,441.004791 
	C1101.261230,433.036896 1101.381348,425.996674 1101.728271,418.745819 
	C1109.344849,413.346680 1116.734497,408.158203 1124.124268,402.969757 
	C1124.421997,405.408905 1124.996338,407.850311 1124.976196,410.286835 
	C1124.683960,445.536072 1124.311768,480.784698 1123.519531,516.539185 
	C1115.723755,517.699951 1108.367310,518.354919 1101.010864,519.009888 
z"/>
<path fill="#141413" opacity="1.000000" stroke="none" 
	d="
M1584.211426,784.731995 
	C1580.055786,776.469299 1576.092407,767.894775 1571.878906,759.044800 
	C1573.657837,751.589355 1575.834229,744.447205 1577.687866,737.222229 
	C1582.772827,717.402344 1587.771606,697.559753 1592.672119,677.693481 
	C1593.419067,674.665771 1593.786377,671.462952 1593.772705,668.343506 
	C1593.719360,656.196472 1593.441772,644.050354 1593.268921,631.434143 
	C1597.281250,633.913940 1601.485596,636.625916 1605.160767,639.927246 
	C1606.684448,641.295898 1607.797485,643.901184 1607.865845,645.984619 
	C1608.329346,660.086243 1608.490234,674.198364 1608.662354,688.308105 
	C1608.680176,689.770020 1608.193970,691.255188 1607.832520,692.702209 
	C1600.624756,721.554749 1593.408691,750.405273 1586.160645,779.247742 
	C1585.718384,781.007935 1584.995972,782.697693 1584.211426,784.731995 
z"/>
<path fill="#4A4A49" opacity="1.000000" stroke="none" 
	d="
M1123.813721,402.670532 
	C1116.734497,408.158203 1109.344849,413.346680 1101.221191,418.750732 
	C1087.748047,418.553192 1075.000854,418.283386 1062.276855,417.588959 
	C1060.102539,417.470276 1057.605103,415.968262 1055.973999,414.372437 
	C1044.472534,403.119751 1033.145630,391.688385 1021.804993,380.272217 
	C1020.663696,379.123230 1019.802734,377.695801 1018.811707,376.397644 
	C1022.733765,369.738342 1026.655762,363.079071 1030.832764,356.191010 
	C1045.015259,369.773621 1059.062500,383.467712 1072.784058,397.480774 
	C1076.121094,400.888763 1079.478882,402.129364 1084.133179,402.075989 
	C1097.253784,401.925385 1110.379517,402.240021 1123.813721,402.670532 
z"/>
<path fill="#2F2F2E" opacity="1.000000" stroke="none" 
	d="
M761.382812,747.797485 
	C755.019775,756.896423 748.662537,765.619812 742.159668,774.645508 
	C741.692322,773.012573 741.072327,771.074097 741.093872,769.142822 
	C741.362732,745.070374 741.672852,720.997986 742.085632,696.927551 
	C742.279053,685.651489 742.824463,674.381042 742.977112,663.104858 
	C743.021973,659.784912 743.974304,657.505615 746.864990,655.707825 
	C752.212036,652.382446 757.371033,648.754822 762.953613,645.130371 
	C762.662048,679.145813 762.025269,713.283875 761.382812,747.797485 
z"/>
<path fill="#4F4F4F" opacity="1.000000" stroke="none" 
	d="
M740.425903,359.613159 
	C728.661621,364.257996 716.565552,368.684143 704.074036,373.199158 
	C672.144043,373.087067 640.609436,372.894806 609.075012,372.668213 
	C606.593933,372.650391 604.114563,372.393860 601.231689,372.115753 
	C608.442383,367.418671 616.013184,362.779846 623.714661,358.369202 
	C624.873962,357.705261 626.643677,358.029327 628.131104,358.027893 
	C646.901978,358.009644 665.674988,357.836029 684.443054,358.066101 
	C702.995972,358.293457 721.543945,358.934784 740.425903,359.613159 
z"/>
<path fill="#4A4A49" opacity="1.000000" stroke="none" 
	d="
M291.098083,370.106262 
	C286.729401,366.065063 282.360718,362.023865 277.689514,357.869202 
	C277.692230,356.858612 277.871643,355.269012 278.324982,355.186584 
	C280.099518,354.864014 281.960602,354.997772 283.789551,354.997223 
	C303.581665,354.991425 323.375732,354.819275 343.165253,355.044983 
	C359.582092,355.232208 375.993591,355.890167 392.736450,356.604553 
	C393.386078,361.230713 393.706665,365.591858 393.575623,370.351013 
	C387.649780,370.645966 382.175903,370.476776 376.701324,370.450897 
	C348.167023,370.315918 319.632507,370.217438 291.098083,370.106262 
z"/>
<path fill="#141413" opacity="1.000000" stroke="none" 
	d="
M1506.368408,637.945801 
	C1507.246338,639.856506 1507.815430,641.744385 1508.064209,643.673584 
	C1510.558838,663.024170 1506.882568,680.922607 1495.480103,697.016663 
	C1494.336060,698.631470 1493.327759,700.449402 1492.726318,702.323853 
	C1489.670532,711.849060 1483.019531,716.733582 1473.356079,718.451294 
	C1468.802979,719.260559 1464.430664,721.086426 1459.568115,722.478882 
	C1468.126587,719.272827 1470.622559,710.710571 1474.700073,703.499207 
	C1477.728638,698.142883 1480.885132,692.797546 1483.227783,687.134216 
	C1485.081543,682.652710 1486.553955,677.740784 1486.836914,672.939941 
	C1487.394043,663.483032 1487.128052,653.968323 1486.960449,644.481873 
	C1486.878418,639.828857 1488.681763,637.701660 1493.426636,637.910095 
	C1497.580566,638.092529 1501.749023,637.944275 1506.368408,637.945801 
z"/>
<path fill="#252523" opacity="1.000000" stroke="none" 
	d="
M1100.658936,519.232605 
	C1108.367310,518.354919 1115.723755,517.699951 1123.493896,517.005127 
	C1114.912354,522.506287 1106.429077,529.366333 1096.742432,533.127075 
	C1090.221558,535.658813 1081.997803,533.985413 1074.540039,533.882690 
	C1061.613403,533.704651 1048.690552,533.256165 1035.764771,532.983459 
	C1030.952393,532.881897 1026.132568,532.836426 1021.322998,532.986328 
	C1017.496826,533.105469 1015.800659,531.506897 1016.013672,527.674744 
	C1016.160950,525.025696 1016.091492,522.364624 1016.153442,519.230347 
	C1044.227539,518.986328 1072.267334,519.220825 1100.658936,519.232605 
z"/>
<path fill="#4A4A49" opacity="1.000000" stroke="none" 
	d="
M843.706177,354.270416 
	C846.607666,360.812286 849.192444,367.444580 851.602417,374.614929 
	C838.875122,387.290527 826.359436,399.466644 813.723450,411.516510 
	C812.147217,413.019653 809.933167,413.854004 807.897461,414.675415 
	C806.587524,412.554901 805.438721,410.726227 804.192871,408.966217 
	C801.823059,405.618683 799.397766,402.310364 796.995544,398.985779 
	C810.300903,386.160919 823.604248,373.333984 836.913818,360.513428 
	C839.058167,358.447876 841.230286,356.411011 843.706177,354.270416 
z"/>
<path fill="#4F4F4F" opacity="1.000000" stroke="none" 
	d="
M796.527405,399.001526 
	C799.397766,402.310364 801.823059,405.618683 804.192871,408.966217 
	C805.438721,410.726227 806.587524,412.554901 807.430176,414.735107 
	C794.684631,415.161316 782.289124,415.204987 769.619568,415.224426 
	C768.978760,415.211060 768.612000,415.221893 768.245239,415.232727 
	C762.106384,410.203094 755.967590,405.173462 749.523193,400.014465 
	C751.125549,399.595154 753.032104,399.063782 754.941406,399.053772 
	C768.647034,398.982178 782.353271,399.016571 796.527405,399.001526 
z"/>
<path fill="#4A4A49" opacity="1.000000" stroke="none" 
	d="
M1119.036987,633.703125 
	C1114.981445,632.358826 1110.704346,630.743835 1106.426025,629.131653 
	C1104.582764,628.436951 1102.737305,627.747742 1100.532471,627.002197 
	C1098.292847,625.348877 1096.547363,623.551392 1094.514282,622.180115 
	C1070.912354,606.260559 1047.261108,590.414124 1023.646301,574.513672 
	C1022.009827,573.411743 1020.558777,572.034546 1018.947266,570.456787 
	C1022.594543,571.406006 1026.786377,571.972046 1029.964233,574.072144 
	C1059.680298,593.709351 1089.222412,613.609558 1119.036987,633.703125 
z"/>
<path fill="#252523" opacity="1.000000" stroke="none" 
	d="
M854.026733,706.403748 
	C847.397278,705.553162 846.845825,705.002441 846.972107,698.552856 
	C847.264160,683.637512 847.645203,668.723877 848.075439,653.377197 
	C854.554932,653.318970 855.027832,653.647888 854.936279,659.866699 
	C854.710083,675.227051 854.331116,690.585083 854.026733,706.403748 
z"/>
<path fill="#141413" opacity="1.000000" stroke="none" 
	d="
M1458.946655,722.362122 
	C1458.464478,722.733459 1457.630615,723.078796 1456.448364,723.426880 
	C1456.931641,723.065125 1457.763184,722.700623 1458.946655,722.362122 
z"/>
<path fill="#141413" opacity="1.000000" stroke="none" 
	d="
M1455.919678,723.300903 
	C1455.443970,723.675293 1454.617920,724.038879 1453.441650,724.405762 
	C1453.917358,724.036133 1454.743286,723.663086 1455.919678,723.300903 
z"/>
<path fill="#141413" opacity="1.000000" stroke="none" 
	d="
M1452.911133,724.272949 
	C1452.390747,724.589966 1451.526611,724.882446 1450.318848,725.081238 
	C1450.839233,724.741089 1451.703491,724.494751 1452.911133,724.272949 
z"/>
<path fill="#4A4A49" opacity="1.000000" stroke="none" 
	d="
M1018.788391,569.877502 
	C1018.373352,569.985779 1017.825562,569.817505 1017.102844,569.407959 
	C1017.503784,569.311462 1018.079773,569.456177 1018.788391,569.877502 
z"/>
<path fill="#1D1D1C" opacity="1.000000" stroke="none" 
	d="
M558.132202,827.056458 
	C558.183167,826.989868 558.350891,826.993164 558.770386,827.005554 
	C559.022034,827.014648 558.646729,827.165100 558.646729,827.165100 
	C558.646729,827.165100 558.248901,827.126282 558.132202,827.056458 
z"/>
<path fill="#4A4A49" opacity="1.000000" stroke="none" 
	d="
M1121.892822,635.773315 
	C1121.783569,635.758911 1121.552734,635.520203 1121.138062,635.113037 
	C1121.230225,635.142517 1121.502686,635.343933 1121.892822,635.773315 
z"/>
<path fill="#4A4A49" opacity="1.000000" stroke="none" 
	d="
M1120.954346,634.831055 
	C1120.854004,634.822632 1120.636230,634.615784 1120.252319,634.257629 
	C1120.420044,634.165955 1120.670288,634.341370 1120.954346,634.831055 
z"/>
<path fill="#969429" opacity="1.000000" stroke="none" 
	d="
M291.139282,370.475769 
	C319.632507,370.217438 348.167023,370.315918 376.701324,370.450897 
	C382.175903,370.476776 387.649780,370.645966 393.596497,370.766205 
	C405.009766,409.357788 415.954590,447.931030 426.889526,486.507080 
	C432.425751,506.037567 437.993591,525.559326 443.452972,545.111328 
	C446.996216,557.800964 450.369507,570.538086 453.964905,583.597473 
	C452.313629,585.056763 450.516357,586.172546 447.304657,588.166382 
	C449.820984,589.381287 451.464600,590.174866 453.278046,591.050415 
	C449.749084,595.296631 447.139557,593.093689 444.679962,591.851013 
	C441.879730,590.436279 439.321930,588.479004 436.431183,587.330078 
	C434.732971,586.654968 432.462341,586.621521 430.672943,587.113464 
	C423.103271,589.194336 421.862030,588.550964 420.079407,580.792114 
	C419.897369,579.999756 419.623535,579.228455 419.125580,577.546570 
	C415.052124,581.062378 411.246277,581.440430 407.888336,577.094788 
	C407.522797,576.621765 405.953033,576.729309 405.111542,577.034851 
	C401.557983,578.325195 398.460449,578.266602 395.329498,575.622131 
	C394.276428,574.732666 391.961853,575.106384 390.257904,575.266113 
	C386.727509,575.596924 384.725494,573.487671 385.916473,570.198120 
	C386.684052,568.078003 388.949951,565.460205 385.700745,564.345886 
	C382.991241,563.416748 378.709656,563.046021 376.845795,564.554688 
	C373.463745,567.292297 371.153809,566.769104 367.911865,565.024658 
	C365.760406,563.867004 363.161407,563.541077 360.119476,562.655518 
	C357.309814,559.394897 353.805206,555.327759 349.926575,551.168396 
	C339.122192,518.992004 328.666138,486.916138 318.269165,454.821075 
	C309.205017,426.840363 300.207489,398.838013 291.139282,370.475769 
z"/>
<path fill="#96932B" opacity="1.000000" stroke="none" 
	d="
M1075.017822,691.931519 
	C1076.271606,692.748169 1077.256592,693.545349 1079.157959,695.084351 
	C1074.162842,694.631226 1074.162842,694.631226 1075.017822,691.931519 
z"/>
<path fill="#929027" opacity="1.000000" stroke="none" 
	d="
M617.934021,592.157104 
	C618.000244,592.602783 617.867554,593.156555 617.574524,593.948975 
	C617.521118,593.546814 617.628113,592.906067 617.934021,592.157104 
z"/>
<path fill="#9C9931" opacity="1.000000" stroke="none" 
	d="
M769.893616,415.248627 
	C782.289124,415.204987 794.684631,415.161316 807.547363,415.057953 
	C809.933167,413.854004 812.147217,413.019653 813.723450,411.516510 
	C826.359436,399.466644 838.875122,387.290527 851.704346,374.950439 
	C904.792847,375.197632 957.604553,375.645844 1010.416199,376.101746 
	C1012.913879,376.123291 1015.410889,376.213348 1018.359985,376.334595 
	C1019.802734,377.695801 1020.663696,379.123230 1021.804993,380.272217 
	C1033.145630,391.688385 1044.472534,403.119751 1055.973999,414.372437 
	C1057.605103,415.968262 1060.102539,417.470276 1062.276855,417.588959 
	C1075.000854,418.283386 1087.748047,418.553192 1100.994385,418.961395 
	C1101.381348,425.996674 1101.261230,433.036896 1101.065674,440.541260 
	C1100.385376,441.961578 1099.168457,442.992340 1099.274658,443.861664 
	C1099.973877,449.591125 1094.860840,451.614685 1092.198486,455.128174 
	C1091.547607,455.987122 1089.124878,456.537445 1088.244019,456.011505 
	C1084.146851,453.565033 1082.363892,455.178162 1081.947388,460.763062 
	C1079.026733,457.907806 1077.375977,455.074158 1075.103882,454.429230 
	C1072.994263,453.830414 1070.221680,455.567291 1066.886963,456.519653 
	C1066.453491,456.255280 1065.092651,455.425293 1063.784424,454.627411 
	C1059.514771,459.030914 1053.984009,458.756958 1048.443848,455.802765 
	C1046.054932,454.528900 1041.914795,455.452667 1039.059204,456.597717 
	C1037.626221,457.172394 1037.149658,460.977692 1034.545532,458.774658 
	C1033.758301,458.108643 1034.800171,455.280426 1035.119873,452.399841 
	C1033.869263,452.399841 1031.570068,451.738312 1029.974854,452.517853 
	C1024.036255,455.420197 1018.332458,457.873871 1011.581604,454.732269 
	C1009.928284,453.962921 1007.468689,454.926392 1005.032593,455.315308 
	C1003.645935,455.086121 1002.606445,454.634827 1001.220032,453.658203 
	C1000.011108,449.954041 997.881592,450.298309 995.545654,451.216187 
	C977.400818,442.966919 959.132568,434.973267 941.185913,426.313324 
	C935.770508,423.700134 931.557068,423.968079 926.315979,426.427063 
	C909.619446,434.260834 892.687744,441.593628 875.488037,449.186371 
	C869.880859,446.502838 864.479187,444.571899 858.404114,445.929199 
	C855.505798,446.576782 852.969849,446.487701 850.882935,443.672302 
	C847.845947,439.574982 844.655212,442.835876 841.002563,444.266418 
	C838.116699,439.019531 834.198120,440.068451 828.710388,440.812500 
	C822.965210,441.591522 816.571899,437.735443 810.494263,435.803375 
	C809.172791,435.383301 807.806519,433.765564 806.774353,434.012085 
	C802.892761,434.939240 799.255249,435.710205 796.081116,432.369110 
	C795.822449,432.096771 794.904419,431.982086 794.707092,432.189117 
	C790.425110,436.680634 788.485779,431.388123 785.333374,430.371185 
	C780.160889,428.702545 774.461426,428.667511 768.610352,427.967529 
	C768.247742,424.298492 768.259033,420.605530 768.544922,416.381653 
	C769.177490,415.650024 769.535522,415.449341 769.893616,415.248627 
z"/>
<path fill="#99972D" opacity="1.000000" stroke="none" 
	d="
M995.802246,451.442932 
	C997.881592,450.298309 1000.011108,449.954041 1000.942688,453.458679 
	C999.361084,453.079559 997.709961,452.374634 995.802246,451.442932 
z"/>
<path fill="#99972D" opacity="1.000000" stroke="none" 
	d="
M769.619568,415.224426 
	C769.535522,415.449341 769.177490,415.650024 768.628418,415.928040 
	C768.437378,416.005371 768.306152,415.628113 768.275696,415.430420 
	C768.612000,415.221893 768.978760,415.211060 769.619568,415.224426 
z"/>
</svg>